<?xml version="1.0" encoding="UTF-8" standalone="no"?>
<!-- Created with Inkscape (http://www.inkscape.org/) -->

<svg
   xmlns:dc="http://purl.org/dc/elements/1.1/"
   xmlns:cc="http://creativecommons.org/ns#"
   xmlns:rdf="http://www.w3.org/1999/02/22-rdf-syntax-ns#"
   xmlns:svg="http://www.w3.org/2000/svg"
   xmlns="http://www.w3.org/2000/svg"
   xmlns:sodipodi="http://sodipodi.sourceforge.net/DTD/sodipodi-0.dtd"
   xmlns:inkscape="http://www.inkscape.org/namespaces/inkscape"
   width="744.09448819"
   height="1052.3622047"
   id="svg2"
   version="1.1"
   inkscape:version="0.48.4 r9939"
   sodipodi:docname="drawing.svg"
   inkscape:export-filename="/tmp/openme_spacea_pi/drawing.png"
   inkscape:export-xdpi="48.049999"
   inkscape:export-ydpi="48.049999">
  <defs
     id="defs4" />
  <sodipodi:namedview
     id="base"
     pagecolor="#ffffff"
     bordercolor="#666666"
     borderopacity="1.0"
     inkscape:pageopacity="0.0"
     inkscape:pageshadow="2"
     inkscape:zoom="0.35"
     inkscape:cx="1034.3879"
     inkscape:cy="391.5593"
     inkscape:document-units="px"
     inkscape:current-layer="layer1"
     showgrid="false"
     showguides="false"
     inkscape:guide-bbox="true"
     inkscape:window-width="1366"
     inkscape:window-height="720"
     inkscape:window-x="0"
     inkscape:window-y="0"
     inkscape:window-maximized="1">
    <sodipodi:guide
       orientation="0,1"
       position="692.85714,190.71429"
       id="guide3779" />
    <sodipodi:guide
       orientation="0,1"
       position="817.71849,377.29198"
       id="guide3791" />
    <sodipodi:guide
       orientation="1,0"
       position="838.67915,408.85924"
       id="guide3793" />
    <sodipodi:guide
       orientation="-0.93969262,-0.34202014"
       position="908.57143,190.71429"
       id="guide3795" />
    <inkscape:grid
       type="xygrid"
       id="grid3799" />
  </sodipodi:namedview>
  <metadata
     id="metadata7">
    <rdf:RDF>
      <cc:Work
         rdf:about="">
        <dc:format>image/svg+xml</dc:format>
        <dc:type
           rdf:resource="http://purl.org/dc/dcmitype/StillImage" />
        <dc:title></dc:title>
      </cc:Work>
    </rdf:RDF>
  </metadata>
  <g
     inkscape:label="Layer 1"
     inkscape:groupmode="layer"
     id="layer1">
    <rect
       style="fill:#ffffff"
       id="rect3027"
       width="1928.5714"
       height="1294.2858"
       x="-162.85715"
       y="-107.63782" />
    <text
       xml:space="preserve"
       style="font-size:40px;font-style:normal;font-weight:normal;text-align:start;line-height:125%;letter-spacing:0px;word-spacing:0px;text-anchor:start;fill:#000000;fill-opacity:1;stroke:none;font-family:Sans"
       x="133.66057"
       y="239.65265"
       id="text2996"
       sodipodi:linespacing="125%"><tspan
         sodipodi:role="line"
         x="133.66057"
         y="239.65265"
         id="tspan3000"
         style="font-size:64px;font-weight:bold;text-align:start;text-anchor:start;-inkscape-font-specification:Sans Bold">SpaceA</tspan></text>
    <path
       sodipodi:type="arc"
       id="path3002"
       sodipodi:cx="287.14285"
       sodipodi:cy="865.2193"
       sodipodi:rx="170"
       sodipodi:ry="170"
       d="M 457.14285,865.2193 A 170,170 0 1 1 345.9853,705.72771 L 287.14285,865.2193 z"
       sodipodi:start="0"
       sodipodi:end="5.0658341"
       transform="matrix(-1,0,0,1,703.99998,-611.42858)" />
    <flowRoot
       xml:space="preserve"
       id="flowRoot3004"
       style="fill:black;stroke:none;stroke-opacity:1;stroke-width:1px;stroke-linejoin:miter;stroke-linecap:butt;fill-opacity:1;font-family:Sans;font-style:normal;font-weight:normal;font-size:40px;line-height:125%;letter-spacing:0px;word-spacing:0px"><flowRegion
         id="flowRegion3006"><rect
           id="rect3008"
           width="302.85715"
           height="68.571426"
           x="88.571426"
           y="538.07648" /></flowRegion><flowPara
         id="flowPara3010" /></flowRoot>    <text
       xml:space="preserve"
       style="font-size:64px;font-style:normal;font-weight:bold;line-height:125%;letter-spacing:0px;word-spacing:0px;fill:#000000;fill-opacity:1;stroke:none;font-family:Sans;-inkscape-font-specification:Sans Bold"
       x="71.857132"
       y="169.21933"
       id="text3012"
       sodipodi:linespacing="125%"><tspan
         sodipodi:role="line"
         id="tspan3014"
         x="71.857132"
         y="169.21933">OpenMe</tspan></text>
    <path
       sodipodi:type="arc"
       id="path3022"
       sodipodi:cx="680"
       sodipodi:cy="208.07646"
       sodipodi:rx="29.285715"
       sodipodi:ry="29.285715"
       d="m 709.28572,208.07646 a 29.285715,29.285715 0 1 1 -58.57144,0 29.285715,29.285715 0 1 1 58.57144,0 z"
       style="fill:#cccccc"
       transform="translate(-214.28571,-35.714285)" />
    <path
       transform="matrix(-0.8660254,-0.5,-0.5,0.8660254,1102.2285,-347.42146)"
       sodipodi:end="3.6651914"
       sodipodi:start="2.0943951"
       d="M 202.14285,1012.4436 A 170,170 0 0 1 139.91853,780.2193 l 147.22432,85 z"
       sodipodi:ry="170"
       sodipodi:rx="170"
       sodipodi:cy="865.2193"
       sodipodi:cx="287.14285"
       id="path3024"
       sodipodi:type="arc"
       style="fill:#000000;stroke:#ffffff;stroke-width:16.10000038;stroke-miterlimit:4;stroke-opacity:1;stroke-dasharray:none"
       inkscape:transform-center-y="237.14286" />
    <text
       sodipodi:linespacing="125%"
       id="text2993"
       y="763.93835"
       x="139.37485"
       style="font-size:40px;font-style:normal;font-weight:normal;text-align:start;line-height:125%;letter-spacing:0px;word-spacing:0px;text-anchor:start;fill:#000000;fill-opacity:1;stroke:none;font-family:Sans"
       xml:space="preserve"><tspan
         style="font-size:64px;font-weight:bold;text-align:start;text-anchor:start;-inkscape-font-specification:Sans Bold"
         id="tspan2995"
         y="763.93835"
         x="139.37485"
         sodipodi:role="line">SpaceA</tspan></text>
    <path
       transform="matrix(-1,0,0,1,709.71427,-87.142865)"
       sodipodi:end="5.0658341"
       sodipodi:start="0"
       d="M 457.14285,865.2193 A 170,170 0 1 1 345.9853,705.72771 L 287.14285,865.2193 z"
       sodipodi:ry="170"
       sodipodi:rx="170"
       sodipodi:cy="865.2193"
       sodipodi:cx="287.14285"
       id="path2997"
       sodipodi:type="arc" />
    <text
       sodipodi:linespacing="125%"
       id="text2999"
       y="693.50507"
       x="77.571419"
       style="font-size:64px;font-style:normal;font-weight:bold;line-height:125%;letter-spacing:0px;word-spacing:0px;fill:#000000;fill-opacity:1;stroke:none;font-family:Sans;-inkscape-font-specification:Sans Bold"
       xml:space="preserve"><tspan
         y="693.50507"
         x="77.571419"
         id="tspan3001"
         sodipodi:role="line">OpenMe</tspan></text>
    <path
       transform="translate(-208.57142,488.57143)"
       style="fill:#cccccc"
       d="m 709.28572,208.07646 a 29.285715,29.285715 0 1 1 -58.57144,0 29.285715,29.285715 0 1 1 58.57144,0 z"
       sodipodi:ry="29.285715"
       sodipodi:rx="29.285715"
       sodipodi:cy="208.07646"
       sodipodi:cx="680"
       id="path3003"
       sodipodi:type="arc" />
    <path
       inkscape:transform-center-y="237.14286"
       style="fill:#80d900;fill-opacity:1;stroke:#ffffff;stroke-width:16;stroke-miterlimit:4;stroke-opacity:1;stroke-dasharray:none"
       sodipodi:type="arc"
       id="path3005"
       sodipodi:cx="287.14285"
       sodipodi:cy="865.2193"
       sodipodi:rx="170"
       sodipodi:ry="170"
       d="M 202.14285,1012.4436 A 170,170 0 0 1 139.91853,780.2193 l 147.22432,85 z"
       sodipodi:start="2.0943951"
       sodipodi:end="3.6651914"
       transform="matrix(-0.8660254,-0.5,-0.5,0.8660254,1898.4818,-423.349)" />
    <path
       transform="matrix(-0.5,0.8660254,0.8660254,0.5,610.87364,-499.42475)"
       sodipodi:end="4.0130439"
       sodipodi:start="2.0943951"
       d="M 202.14285,1012.4436 A 170,170 0 0 1 177.71102,735.12443 L 287.14285,865.2193 z"
       sodipodi:ry="170"
       sodipodi:rx="170"
       sodipodi:cy="865.2193"
       sodipodi:cx="287.14285"
       id="path3775"
       sodipodi:type="arc"
       style="fill:#80d900;fill-opacity:1;stroke:#ffffff;stroke-width:16;stroke-miterlimit:4;stroke-opacity:1;stroke-dasharray:none"
       inkscape:transform-center-x="-237.14286" />
    <path
       transform="matrix(0.8660254,-0.5,0.5,0.8660254,535.04765,-423.349)"
       sodipodi:end="3.6651914"
       sodipodi:start="2.0943951"
       d="M 202.14285,1012.4436 A 170,170 0 0 1 139.91853,780.2193 l 147.22432,85 z"
       sodipodi:ry="170"
       sodipodi:rx="170"
       sodipodi:cy="865.2193"
       sodipodi:cx="287.14285"
       id="path3777"
       sodipodi:type="arc"
       style="fill:#80d900;fill-opacity:1;stroke:#ffffff;stroke-width:16;stroke-miterlimit:4;stroke-opacity:1;stroke-dasharray:none"
       inkscape:transform-center-y="237.14286" />
    <path
       sodipodi:type="arc"
       id="path3781"
       sodipodi:cx="680"
       sodipodi:cy="208.07646"
       sodipodi:rx="29.285715"
       sodipodi:ry="29.285715"
       d="m 709.28572,208.07646 a 29.285715,29.285715 0 1 1 -58.57144,0 29.285715,29.285715 0 1 1 58.57144,0 z"
       style="fill:#ffffff;fill-opacity:1"
       transform="translate(571.00084,-116.61059)" />
    <text
       xml:space="preserve"
       style="font-size:40px;font-style:normal;font-weight:normal;text-align:start;line-height:125%;letter-spacing:0px;word-spacing:0px;text-anchor:start;fill:#007100;fill-opacity:1;stroke:none;font-family:Sans"
       x="942.54834"
       y="174.17479"
       id="text3783"
       sodipodi:linespacing="125%"><tspan
         sodipodi:role="line"
         x="942.54834"
         y="174.17479"
         id="tspan3785"
         style="font-size:64px;font-weight:bold;text-align:start;text-anchor:start;fill:#007100;fill-opacity:1;-inkscape-font-specification:Sans Bold">SpaceA</tspan></text>
    <g
       style="font-size:64px;font-style:normal;font-weight:bold;line-height:125%;letter-spacing:0px;word-spacing:0px;fill:#007100;fill-opacity:1;stroke:none;font-family:Sans;-inkscape-font-specification:Sans Bold"
       id="text3787"
       transform="translate(-14.285714,-468.57143)">
      <path
         d="m 926.474,527.39893 c -3.66669,3e-5 -6.51044,1.3542 -8.53125,4.0625 -2.02085,2.70836 -3.03127,6.52086 -3.03125,11.4375 -2e-5,4.89585 1.0104,8.69793 3.03125,11.40625 2.02081,2.70834 4.86456,4.0625 8.53125,4.0625 3.68747,0 6.54163,-1.35416 8.5625,-4.0625 2.02079,-2.70832 3.03121,-6.5104 3.03125,-11.40625 -4e-5,-4.91664 -1.01046,-8.72914 -3.03125,-11.4375 -2.02087,-2.7083 -4.87503,-4.06247 -8.5625,-4.0625 m 0,-8.71875 c 7.49996,4e-5 13.37496,2.14587 17.625,6.4375 4.24995,4.2917 6.37495,10.21878 6.375,17.78125 -5e-5,7.54168 -2.12505,13.45834 -6.375,17.75 -4.25004,4.29166 -10.12504,6.43749 -17.625,6.4375 -7.47919,-10e-6 -13.35418,-2.14584 -17.625,-6.4375 -4.25001,-4.29166 -6.375,-10.20832 -6.375,-17.75 0,-7.56247 2.12499,-13.48955 6.375,-17.78125 4.27082,-4.29163 10.14581,-6.43746 17.625,-6.4375"
         id="path3802"
         inkscape:connector-curvature="0" />
      <path
         d="m 970.224,561.11768 0,18.375 -11.1875,0 0,-48.3125 11.1875,0 0,5.125 c 1.54165,-2.04164 3.24998,-3.54164 5.125,-4.5 1.87498,-0.97914 4.03122,-1.46872 6.46875,-1.46875 4.31247,3e-5 7.85413,1.71878 10.625,5.15625 2.77079,3.41669 4.15621,7.82294 4.15625,13.21875 -4e-5,5.39584 -1.38546,9.8125 -4.15625,13.25 -2.77087,3.41666 -6.31253,5.12499 -10.625,5.125 -2.43753,-10e-6 -4.59377,-0.47917 -6.46875,-1.4375 -1.87502,-0.97917 -3.58335,-2.48958 -5.125,-4.53125 m 7.4375,-22.65625 c -2.39586,2e-5 -4.2396,0.88544 -5.53125,2.65625 -1.27085,1.75002 -1.90627,4.28127 -1.90625,7.59375 -2e-5,3.31251 0.6354,5.85417 1.90625,7.625 1.29165,1.75 3.13539,2.625 5.53125,2.625 2.39581,0 4.21872,-0.875 5.46875,-2.625 1.2708,-1.74999 1.90622,-4.29166 1.90625,-7.625 -3e-5,-3.33332 -0.63545,-5.87498 -1.90625,-7.625 -1.25003,-1.74998 -3.07294,-2.62498 -5.46875,-2.625"
         id="path3804"
         inkscape:connector-curvature="0" />
      <path
         d="m 1039.849,548.58643 0,3.1875 -26.1563,0 c 0.2709,2.62501 1.2188,4.59376 2.8438,5.90625 1.625,1.3125 3.8958,1.96875 6.8125,1.96875 2.3541,0 4.7604,-0.34375 7.2187,-1.03125 2.4792,-0.70833 5.0208,-1.77083 7.625,-3.1875 l 0,8.625 c -2.6458,1 -5.2917,1.75 -7.9375,2.25 -2.6458,0.52083 -5.2916,0.78124 -7.9375,0.78125 -6.3333,-10e-6 -11.2604,-1.60417 -14.7812,-4.8125 -3.5,-3.22916 -5.25,-7.74999 -5.25,-13.5625 0,-5.70831 1.7187,-10.19789 5.1562,-13.46875 3.4584,-3.2708 8.2084,-4.90622 14.25,-4.90625 5.5,3e-5 9.8959,1.65628 13.1875,4.96875 3.3125,3.31252 4.9688,7.7396 4.9688,13.28125 m -11.5,-3.71875 c 0,-2.12498 -0.625,-3.83331 -1.875,-5.125 -1.2292,-1.31248 -2.8438,-1.96873 -4.8438,-1.96875 -2.1666,2e-5 -3.9271,0.61461 -5.2812,1.84375 -1.3542,1.20835 -2.1979,2.95835 -2.5313,5.25 l 14.5313,0"
         id="path3806"
         inkscape:connector-curvature="0" />
      <path
         d="m 1083.474,544.86768 0,21.3125 -11.25,0 0,-3.46875 0,-12.84375 c 0,-3.02082 -0.073,-5.10415 -0.2188,-6.25 -0.125,-1.14581 -0.3541,-1.98956 -0.6875,-2.53125 -0.4375,-0.72915 -1.0312,-1.29164 -1.7812,-1.6875 -0.75,-0.41664 -1.6042,-0.62498 -2.5625,-0.625 -2.3334,2e-5 -4.1667,0.90627 -5.5,2.71875 -1.3334,1.79169 -2,4.28127 -2,7.46875 l 0,17.21875 -11.1875,0 0,-35 11.1875,0 0,5.125 c 1.6875,-2.04164 3.4791,-3.54164 5.375,-4.5 1.8958,-0.97914 3.9896,-1.46872 6.2812,-1.46875 4.0417,3e-5 7.1042,1.23961 9.1875,3.71875 2.1042,2.47919 3.1563,6.08336 3.1563,10.8125"
         id="path3808"
         inkscape:connector-curvature="0" />
      <path
         d="m 1094.4115,519.52393 15.3125,0 10.625,24.96875 10.6875,-24.96875 15.2812,0 0,46.65625 -11.375,0 0,-34.125 -10.75,25.15625 -7.625,0 -10.75,-25.15625 0,34.125 -11.4062,0 0,-46.65625"
         id="path3810"
         inkscape:connector-curvature="0" />
      <path
         d="m 1192.599,548.58643 0,3.1875 -26.1563,0 c 0.2709,2.62501 1.2188,4.59376 2.8438,5.90625 1.625,1.3125 3.8958,1.96875 6.8125,1.96875 2.3541,0 4.7604,-0.34375 7.2187,-1.03125 2.4792,-0.70833 8.4932,-3.85427 11.0974,-5.27094 l 1.8309,9.13008 c -2.6458,1 -10.595,3.32836 -13.2408,3.82836 -2.6458,0.52083 -5.2916,0.78124 -7.9375,0.78125 -6.3333,-10e-6 -11.2604,-1.60417 -14.7812,-4.8125 -3.5,-3.22916 -5.25,-7.74999 -5.25,-13.5625 0,-5.70831 1.7187,-10.19789 5.1562,-13.46875 3.4584,-3.2708 8.2084,-4.90622 14.25,-4.90625 5.5,3e-5 9.8959,1.65628 13.1875,4.96875 3.3125,3.31252 4.9688,7.7396 4.9688,13.28125 m -11.5,-3.71875 c 0,-2.12498 -0.625,-3.83331 -1.875,-5.125 -1.2292,-1.31248 -2.8438,-1.96873 -4.8438,-1.96875 -2.1666,2e-5 -3.9271,0.61461 -5.2812,1.84375 -1.3542,1.20835 -2.1979,2.95835 -2.5313,5.25 l 14.5313,0"
         id="path3812"
         inkscape:connector-curvature="0"
         sodipodi:nodetypes="cccssccccscscccccccccc" />
    </g>
    <rect
       style="fill:#ffffff;stroke-width:16;stroke-miterlimit:4;stroke-dasharray:none"
       id="rect3797"
       width="9.3439112"
       height="35.607876"
       x="1070.5421"
       y="476.32364"
       transform="matrix(0.93429184,-0.35650914,0.35650914,0.93429184,0,0)" />
    <path
       transform="matrix(0.8660254,-0.5,0.5,0.8660254,357.9048,156.651)"
       sodipodi:end="3.6651914"
       sodipodi:start="2.0943951"
       d="M 202.14285,1012.4436 A 170,170 0 0 1 139.91853,780.2193 l 147.22432,85 z"
       sodipodi:ry="170"
       sodipodi:rx="170"
       sodipodi:cy="865.2193"
       sodipodi:cx="287.14285"
       id="path3814"
       sodipodi:type="arc"
       style="fill:#80d900;fill-opacity:1;stroke:#ffffff;stroke-width:16;stroke-miterlimit:4;stroke-opacity:1;stroke-dasharray:none"
       inkscape:transform-center-y="237.14286" />
    <path
       inkscape:transform-center-x="237.14287"
       style="fill:#80d900;fill-opacity:1;stroke:#ffffff;stroke-width:16;stroke-miterlimit:4;stroke-opacity:1;stroke-dasharray:none"
       sodipodi:type="arc"
       id="path3816"
       sodipodi:cx="287.14285"
       sodipodi:cy="865.2193"
       sodipodi:rx="170"
       sodipodi:ry="170"
       d="M 202.14285,1012.4436 A 170,170 0 0 1 177.71102,735.12443 L 287.14285,865.2193 z"
       sodipodi:start="2.0943951"
       sodipodi:end="4.0130439"
       transform="matrix(0.5,0.8660254,-0.8660254,0.5,1645.513,80.57525)" />
    <path
       inkscape:transform-center-y="237.14286"
       style="fill:#80d900;fill-opacity:1;stroke:#ffffff;stroke-width:16;stroke-miterlimit:4;stroke-opacity:1;stroke-dasharray:none"
       sodipodi:type="arc"
       id="path3818"
       sodipodi:cx="287.14285"
       sodipodi:cy="865.2193"
       sodipodi:rx="170"
       sodipodi:ry="170"
       d="M 202.14285,1012.4436 A 170,170 0 0 1 139.91853,780.2193 l 147.22432,85 z"
       sodipodi:start="2.0943951"
       sodipodi:end="3.6651914"
       transform="matrix(-0.8660254,-0.5,-0.5,0.8660254,1721.339,156.651)" />
    <path
       transform="matrix(-1,0,0,1,1685.3858,463.38941)"
       style="fill:#ffffff;fill-opacity:1"
       d="m 709.28572,208.07646 a 29.285715,29.285715 0 1 1 -58.57144,0 29.285715,29.285715 0 1 1 58.57144,0 z"
       sodipodi:ry="29.285715"
       sodipodi:rx="29.285715"
       sodipodi:cy="208.07646"
       sodipodi:cx="680"
       id="path3820"
       sodipodi:type="arc" />
    <text
       sodipodi:linespacing="125%"
       id="text3822"
       y="740.94934"
       x="1066.4808"
       style="font-size:40px;font-style:normal;font-weight:normal;text-align:start;line-height:125%;letter-spacing:0px;word-spacing:0px;text-anchor:start;fill:#007100;fill-opacity:1;stroke:none;font-family:Sans"
       xml:space="preserve"><tspan
         style="font-size:64px;font-style:normal;font-variant:normal;font-weight:bold;font-stretch:normal;text-align:start;text-anchor:start;fill:#007100;fill-opacity:1;font-family:Sonsie One;-inkscape-font-specification:Sonsie One Bold"
         id="tspan3824"
         y="740.94934"
         x="1066.4808"
         sodipodi:role="line">SpaceAPI</tspan></text>
    <rect
       transform="matrix(-0.93429184,-0.35650914,-0.35650914,0.93429184,0,0)"
       y="213.79048"
       x="-1244.3568"
       height="35.607876"
       width="9.3439112"
       id="rect3840"
       style="fill:#ffffff;stroke-width:16;stroke-miterlimit:4;stroke-dasharray:none" />
    <text
       xml:space="preserve"
       style="font-size:40px;font-style:normal;font-weight:normal;text-align:start;line-height:125%;letter-spacing:0px;word-spacing:0px;text-anchor:start;fill:#007100;fill-opacity:1;stroke:none;font-family:Sans"
       x="1097.9094"
       y="666.66364"
       id="text3842"
       sodipodi:linespacing="125%"><tspan
         sodipodi:role="line"
         x="1097.9094"
         y="666.66364"
         id="tspan3844"
         style="font-size:64px;font-style:normal;font-variant:normal;font-weight:bold;font-stretch:normal;text-align:start;text-anchor:start;fill:#007100;fill-opacity:1;font-family:Sonsie One;-inkscape-font-specification:Sonsie One Bold">OpenMePi</tspan></text>
  </g>
</svg>
